<?xml version="1.0" standalone="no"?>
<!DOCTYPE svg PUBLIC "-//W3C//DTD SVG 20010904//EN"
 "http://www.w3.org/TR/2001/REC-SVG-20010904/DTD/svg10.dtd">
<svg version="1.0" xmlns="http://www.w3.org/2000/svg"
 width="1042.000000pt" height="1280.000000pt" viewBox="0 0 1042.000000 1280.000000"
 preserveAspectRatio="xMidYMid meet">
<metadata>
Created by potrace 1.15, written by Peter Selinger 2001-2017
</metadata>
<g transform="translate(0.000000,1280.000000) scale(0.100000,-0.100000)"
fill="#fff" stroke="none">
<path d="M4732 12734 c-12 -8 -22 -25 -22 -38 0 -19 -8 -24 -59 -34 -72 -15
-170 -78 -201 -128 -48 -77 -32 -161 42 -215 36 -25 119 -58 191 -73 27 -6 27
-7 27 -91 0 -47 -4 -85 -9 -85 -18 0 -64 45 -77 77 l-14 33 -86 0 c-47 0 -94
-5 -105 -10 -24 -14 -24 -50 0 -99 39 -75 119 -122 239 -139 44 -7 47 -9 52
-42 5 -33 8 -35 45 -37 46 -3 78 16 80 49 1 18 11 24 58 35 159 36 260 143
242 258 -12 86 -103 147 -256 171 l-39 7 0 79 c0 77 0 78 21 67 12 -6 26 -24
32 -40 l11 -29 91 0 c115 1 132 11 114 70 -23 77 -140 150 -242 150 -25 0 -27
3 -27 40 l0 40 -43 0 c-23 0 -53 -7 -65 -16z m-22 -264 c0 -69 0 -69 -23 -59
-33 15 -49 46 -42 79 6 25 18 35 63 49 1 1 2 -30 2 -69z m201 -301 c17 -33 2
-88 -27 -99 -14 -6 -30 -10 -35 -10 -5 0 -9 36 -9 80 l0 81 30 -16 c16 -8 34
-25 41 -36z"/>
<path d="M5692 12734 c-12 -8 -22 -25 -22 -37 0 -19 -10 -25 -69 -40 -118 -31
-221 -128 -221 -208 0 -92 75 -157 224 -195 l66 -16 0 -84 c0 -46 -2 -84 -5
-84 -4 0 -18 6 -33 14 -26 13 -42 37 -56 79 -5 14 -18 17 -91 17 -98 0 -125
-10 -125 -46 0 -88 104 -179 225 -199 82 -13 85 -14 85 -40 l0 -25 -318 0
-319 0 -153 -160 c-85 -88 -157 -165 -162 -172 -4 -7 -8 -128 -7 -268 l0 -254
-34 -12 c-19 -7 -65 -15 -101 -19 -36 -4 -69 -11 -72 -16 -3 -5 -20 -9 -39 -9
-19 0 -36 -4 -39 -9 -3 -5 -30 -12 -61 -16 -30 -3 -57 -11 -60 -16 -4 -5 -15
-9 -26 -9 -10 0 -27 -4 -37 -9 -9 -4 -61 -23 -115 -40 l-97 -33 -36 32 c-42
37 -67 47 -149 64 -59 12 -60 13 -63 49 -3 36 -4 37 -45 37 -50 0 -87 -23 -87
-53 0 -19 -10 -25 -70 -41 -75 -19 -158 -72 -191 -122 -49 -75 -25 -172 56
-223 l45 -29 -32 -26 c-148 -119 -179 -146 -276 -246 -216 -220 -307 -316
-394 -418 -34 -39 -148 -205 -174 -252 -10 -19 -21 -37 -24 -40 -8 -8 -90
-177 -90 -185 0 -4 -6 -21 -14 -38 -23 -54 -43 -109 -61 -172 -9 -33 -21 -71
-25 -85 -10 -33 -35 -156 -50 -250 -18 -109 -24 -476 -11 -595 15 -136 44
-297 60 -340 16 -41 41 -123 41 -134 0 -6 11 -34 24 -63 35 -78 47 -110 44
-113 -2 -1 -22 -12 -45 -24 -63 -31 -119 -90 -133 -138 -33 -110 49 -198 220
-237 l55 -13 3 -86 c3 -80 1 -86 -15 -80 -30 10 -55 36 -70 71 l-13 32 -93 0
c-59 0 -97 -4 -105 -12 -25 -25 -6 -94 42 -146 39 -44 159 -92 229 -92 24 0
27 -4 27 -34 0 -32 3 -34 38 -39 43 -6 85 18 90 52 2 11 9 21 17 21 37 0 147
44 187 74 l46 35 87 -71 c49 -38 114 -86 144 -107 31 -20 58 -39 59 -43 2 -5
10 -8 18 -8 8 0 14 -4 14 -10 0 -5 6 -10 14 -10 8 0 21 -6 28 -12 30 -28 277
-153 398 -202 52 -21 109 -44 125 -51 95 -40 425 -145 565 -180 30 -8 91 -23
135 -34 44 -12 90 -21 102 -21 31 0 34 -19 31 -204 l-3 -159 -50 -14 c-72 -22
-160 -87 -185 -137 -53 -110 7 -202 165 -252 l80 -25 0 -79 c0 -44 -2 -80 -5
-80 -18 0 -51 36 -58 63 l-8 32 -87 3 c-49 2 -96 -2 -107 -8 -37 -20 -21 -92
33 -148 47 -50 91 -70 207 -96 l25 -5 0 -406 c0 -262 -4 -405 -10 -406 -22 -3
-43 4 -110 38 -64 32 -163 90 -175 103 -3 3 -27 23 -55 45 -146 115 -272 303
-349 520 -43 124 -43 125 14 162 72 47 104 101 105 174 0 107 -71 161 -267
203 -28 6 -28 8 -28 82 0 73 0 74 21 63 12 -6 26 -24 32 -40 l11 -29 92 0 c77
0 94 3 108 19 21 23 16 49 -20 102 -37 54 -81 75 -216 104 -24 5 -28 10 -28
40 l0 35 -48 0 c-51 0 -77 -16 -83 -54 -3 -14 -18 -23 -54 -31 -168 -38 -265
-161 -220 -277 7 -17 -10 -18 -276 -18 -156 0 -301 3 -321 6 l-38 7 0 73 c0
41 4 74 9 74 14 0 39 -27 46 -50 6 -18 15 -20 98 -20 64 1 98 5 111 15 18 14
18 16 2 59 -29 75 -109 128 -213 142 -51 6 -52 7 -55 43 -3 34 -5 36 -41 39
-47 4 -87 -20 -87 -51 0 -20 -9 -25 -70 -41 -96 -24 -181 -87 -205 -150 -21
-54 -15 -107 15 -148 l20 -27 -98 -102 c-53 -56 -121 -127 -150 -158 l-53 -56
6 -55 c4 -30 10 -93 15 -140 12 -120 36 -273 55 -355 9 -38 20 -86 25 -105 27
-120 111 -360 151 -433 5 -10 7 -33 3 -52 -14 -78 22 -147 96 -185 23 -12 50
-39 71 -72 30 -47 58 -87 90 -126 16 -20 4 -25 -20 -10 -12 7 -29 30 -38 51
l-17 37 -90 0 c-116 0 -131 -11 -111 -77 27 -89 119 -153 245 -171 55 -7 55
-7 58 -45 3 -37 4 -37 47 -37 36 0 47 5 67 30 l23 29 70 -67 c39 -37 89 -82
112 -100 23 -19 52 -43 65 -54 32 -28 201 -139 268 -175 370 -203 756 -324
1240 -389 74 -10 138 -22 142 -28 4 -6 8 -33 8 -59 0 -41 -4 -52 -30 -74 -16
-13 -30 -33 -30 -43 0 -14 -10 -21 -37 -26 -109 -20 -222 -104 -242 -181 -31
-114 59 -201 247 -238 l32 -7 0 -84 c0 -51 -4 -84 -10 -84 -24 0 -59 34 -74
71 l-16 39 -88 0 c-76 0 -91 -3 -107 -20 -16 -18 -17 -25 -6 -61 26 -86 114
-148 242 -171 58 -10 59 -10 59 -44 0 -34 0 -34 48 -34 51 0 82 20 82 53 0 10
11 19 28 23 104 23 194 71 233 125 l20 29 123 0 123 0 24 -35 c34 -51 100 -91
179 -109 38 -9 76 -16 84 -16 12 0 16 -10 16 -35 l0 -35 48 0 c51 0 82 20 82
52 0 11 17 20 53 28 104 25 193 85 226 153 27 55 27 99 0 154 -30 63 -93 95
-251 128 -27 5 -27 5 -21 73 3 37 7 69 9 71 6 7 36 -23 45 -46 8 -21 14 -23
93 -23 67 0 88 4 107 19 23 18 23 18 5 65 -29 75 -100 121 -218 141 l-38 6 0
108 c0 77 4 112 13 119 7 6 51 18 98 26 197 35 448 101 554 145 35 15 99 42
120 50 38 16 290 142 335 168 126 73 337 233 455 344 37 35 72 64 79 64 6 0
43 -7 83 -14 70 -14 72 -15 75 -45 3 -29 6 -31 45 -34 53 -4 83 11 83 43 0 20
7 25 52 34 74 16 129 43 177 87 55 49 71 82 71 146 0 91 -46 141 -162 176 -32
9 -58 21 -58 26 0 5 11 24 26 43 23 30 29 33 82 33 94 1 114 35 67 116 l-26
44 39 67 c86 153 179 406 216 588 31 151 36 180 46 288 20 203 9 622 -20 737
-4 19 -16 80 -26 135 -9 55 -21 105 -25 110 -4 6 -10 28 -14 50 -4 22 -11 45
-14 50 -4 6 -13 28 -20 50 -32 95 -88 211 -156 320 -27 44 -52 82 -55 85 -4 3
-11 12 -16 21 -11 21 -67 89 -116 143 -21 23 -38 44 -38 47 0 4 21 14 47 24
64 25 148 108 162 162 31 116 -54 211 -215 238 -77 13 -74 9 -74 92 0 85 9 90
49 30 l24 -37 81 0 c62 0 86 5 104 18 20 16 21 21 11 52 -28 84 -92 131 -208
152 -59 11 -60 12 -63 47 -3 34 -5 36 -41 39 -48 4 -87 -19 -87 -52 0 -21 -7
-26 -50 -35 -134 -29 -240 -125 -240 -216 0 -40 27 -97 59 -123 29 -24 115
-60 174 -73 l57 -12 0 -59 c0 -32 -2 -58 -5 -58 -8 0 -160 104 -163 113 -2 4
-8 7 -13 7 -5 0 -28 12 -51 26 -37 23 -227 121 -328 167 -33 16 -34 17 -9 17
15 0 36 8 47 18 20 16 20 20 7 56 -27 77 -92 122 -207 146 -57 11 -58 12 -58
46 0 34 0 34 -47 34 -55 -1 -80 -15 -85 -50 -2 -20 -12 -26 -61 -37 -31 -7
-70 -19 -87 -28 -31 -16 -26 -17 -180 27 -19 5 -62 16 -95 24 -33 8 -76 19
-95 24 -82 20 -178 41 -210 46 -19 3 -44 10 -55 14 -11 5 -29 10 -40 12 -20 3
-20 12 -23 401 l-2 397 31 0 c43 0 69 17 69 45 0 19 7 26 28 30 111 23 169 53
225 114 67 75 71 164 10 232 -37 41 -98 68 -195 89 l-58 11 0 76 c0 84 9 90
48 31 l24 -35 83 -2 c50 -1 86 2 90 9 4 7 10 6 18 -2 18 -19 66 -119 73 -153
4 -16 10 -34 14 -40 14 -22 46 -146 56 -225 14 -101 13 -99 62 -123 42 -20 63
-22 197 -22 l150 0 5 -30 c5 -27 9 -30 48 -33 45 -3 69 9 81 40 6 17 30 18
361 18 195 1 370 1 388 0 29 0 32 -3 32 -29 0 -62 122 -52 132 11 2 16 15 24
55 34 72 19 131 49 176 93 49 46 67 80 67 128 0 21 8 50 18 63 13 20 17 43 15
105 -2 98 -42 340 -77 465 -9 30 -18 66 -22 80 -3 14 -9 34 -14 45 -4 11 -15
43 -25 70 -18 55 -20 60 -64 158 -17 38 -31 72 -31 77 0 5 -3 10 -7 12 -5 2
-24 35 -43 73 -19 39 -37 72 -40 75 -3 3 -21 30 -40 60 -19 30 -38 58 -43 61
-4 3 -9 18 -10 34 -2 26 1 29 56 41 146 34 240 123 240 229 0 100 -64 157
-218 193 l-77 18 0 72 c0 40 1 72 3 73 16 2 39 -17 49 -42 l12 -29 93 0 c75 0
95 3 108 18 13 15 14 22 2 56 -26 75 -109 130 -216 143 l-49 6 0 38 0 39 -48
0 c-53 0 -82 -20 -82 -57 0 -17 -8 -23 -42 -28 -60 -10 -124 -39 -173 -80 -99
-80 -100 -194 -3 -268 30 -23 119 -57 191 -72 27 -5 27 -6 27 -90 0 -48 -4
-85 -10 -85 -18 0 -78 60 -84 85 -5 18 -13 25 -31 25 -14 0 -35 9 -47 19 -13
11 -36 32 -53 46 -16 14 -68 51 -115 83 -47 31 -86 60 -88 65 -2 4 -8 7 -13 7
-5 0 -30 13 -55 28 -44 28 -45 29 -24 43 19 13 20 17 9 49 -28 83 -95 131
-210 152 -57 10 -58 10 -61 46 -3 35 -5 37 -40 40 -46 4 -88 -22 -88 -53 0
-19 -9 -24 -62 -37 -34 -9 -69 -12 -78 -8 -27 13 -84 29 -130 36 -25 4 -49 10
-55 14 -5 4 -26 10 -45 13 -19 4 -75 13 -125 22 -90 16 -179 29 -290 43 l-60
7 -5 390 c-3 215 -9 398 -14 408 -6 12 -4 17 5 17 23 1 52 28 54 52 1 18 11
24 56 33 249 51 335 291 139 384 -33 16 -90 34 -125 41 l-65 12 0 79 0 79 25
-16 c14 -9 28 -27 31 -40 6 -23 10 -24 98 -24 116 0 134 10 116 64 -26 81
-112 140 -221 153 l-49 6 0 38 0 39 -43 0 c-23 0 -53 -7 -65 -16z m-22 -264
l0 -71 -29 16 c-34 17 -45 42 -35 79 5 21 20 32 62 45 1 1 2 -31 2 -69z m187
-286 c21 -21 24 -32 20 -61 -7 -43 -13 -49 -49 -58 l-28 -7 0 76 c0 86 11 96
57 50z m-2207 -1454 c0 -68 -1 -70 -20 -60 -11 6 -27 22 -36 36 -25 37 -1 80
54 93 1 1 2 -31 2 -69z m176 28 c7 -10 -21 -38 -38 -38 -4 0 -8 16 -8 35 0 32
2 35 19 25 11 -5 23 -15 27 -22z m3680 -115 c-9 -10 -57 31 -62 54 -9 34 10
71 38 75 22 3 23 -1 26 -61 2 -35 1 -65 -2 -68z m184 -211 c16 -13 22 -29 22
-56 0 -43 -14 -62 -54 -71 l-28 -7 0 76 c0 68 2 76 19 76 10 0 29 -8 41 -18z
m-2986 -940 c2 -4 6 -48 7 -97 l2 -90 -49 -18 c-106 -40 -184 -128 -184 -208
0 -70 64 -135 168 -170 l60 -20 4 -75 c2 -41 -1 -74 -5 -74 -5 0 -16 18 -24
40 l-16 40 -84 0 c-46 0 -93 -5 -104 -10 -25 -14 -24 -52 2 -108 26 -52 77
-88 165 -117 l64 -21 3 -292 c1 -173 -2 -292 -7 -292 -19 0 -142 64 -191 99
-74 53 -95 71 -150 126 -73 74 -91 100 -141 203 -61 125 -82 233 -65 329 10
57 10 76 -2 115 -14 43 -13 58 4 155 18 107 56 226 84 270 29 44 73 81 131
112 33 17 62 31 65 31 4 0 24 8 45 17 32 14 180 59 206 62 4 1 9 -3 12 -7z
m1084 -91 c10 -6 7 -10 -11 -13 -18 -4 -24 -1 -20 9 6 15 13 16 31 4z m108
-59 c10 -10 28 -24 39 -31 19 -12 18 -12 -5 -7 -14 3 -35 6 -47 6 -18 0 -23 6
-23 25 0 30 9 31 36 7z m-1176 -234 c-1 -26 -3 -30 -10 -16 -6 9 -7 23 -4 32
9 25 14 19 14 -16z m1173 -269 c52 -23 58 -111 10 -130 -50 -19 -53 -14 -53
66 0 41 4 75 10 75 5 0 20 -5 33 -11z m-3299 -1401 c9 -12 16 -42 16 -66 0
-44 0 -44 -22 -30 -38 25 -54 62 -40 92 14 32 26 33 46 4z m4161 -16 c-3 -3
-11 0 -18 7 -9 10 -8 11 6 5 10 -3 15 -9 12 -12z m755 -47 c0 -36 -4 -65 -9
-65 -4 0 -20 9 -35 21 -44 35 -28 109 25 109 17 0 19 -7 19 -65z m-4710 -263
c35 -44 17 -105 -35 -114 l-25 -5 0 77 c0 74 1 78 20 73 11 -3 29 -17 40 -31z
m4874 -3 c31 -14 46 -54 35 -93 -9 -33 -24 -46 -56 -46 -22 0 -23 4 -23 75 0
41 4 75 10 75 5 0 20 -5 34 -11z m-1709 -1250 c109 -58 159 -95 244 -179 84
-83 148 -194 170 -292 9 -37 7 -43 -14 -60 -20 -15 -22 -23 -15 -55 5 -20 23
-57 40 -81 23 -32 33 -61 37 -100 11 -98 -41 -489 -68 -517 -5 -5 -9 -19 -9
-32 0 -13 -4 -23 -10 -23 -5 0 -10 -8 -10 -18 0 -10 -12 -42 -26 -70 -28 -56
-47 -69 -169 -122 -123 -53 -182 -67 -267 -62 -37 2 -38 3 -38 42 l0 40 -40 0
-40 0 0 353 0 353 33 9 c24 8 33 16 35 37 3 23 10 28 55 38 159 33 274 153
253 265 -15 79 -97 135 -238 165 l-58 11 0 76 c0 85 9 90 49 30 l24 -37 81 0
c63 0 86 5 105 19 22 17 23 21 12 54 -26 78 -94 128 -203 149 -64 12 -68 14
-68 40 l0 27 48 -20 c26 -10 65 -29 87 -40z m-3295 -214 c0 -72 -8 -78 -45
-40 -41 40 -25 105 26 105 17 0 19 -7 19 -65z m1040 0 c0 -71 -9 -79 -47 -43
-42 39 -20 101 40 107 4 1 7 -28 7 -64z m1000 15 c0 -54 -14 -65 -31 -26 -14
30 -4 76 16 76 11 0 15 -13 15 -50z m1160 -275 c33 -17 44 -43 35 -85 -7 -30
-30 -50 -59 -50 -13 0 -16 14 -16 75 0 41 2 75 5 75 4 0 19 -7 35 -15z m1883
-1653 c22 -19 23 -85 1 -106 -8 -9 -26 -16 -40 -16 -23 0 -24 2 -24 76 0 74 1
75 23 68 12 -3 30 -13 40 -22z m-183 -98 c0 -14 -21 -19 -33 -7 -9 9 13 34 24
27 5 -3 9 -12 9 -20z m-2920 -1369 c0 -36 -4 -65 -9 -65 -5 0 -19 8 -32 18
-40 33 -24 112 22 112 17 0 19 -8 19 -65z m960 -310 c0 -94 -8 -104 -54 -62
-43 38 -43 68 1 110 20 20 41 37 45 37 4 0 8 -38 8 -85z m169 40 c31 -15 41
-33 41 -71 0 -29 -33 -64 -60 -64 -18 0 -20 7 -20 75 0 41 2 75 5 75 4 0 19
-7 34 -15z m-954 -116 c20 0 20 0 0 -9 -33 -14 -45 -11 -45 12 0 17 3 19 12
10 7 -7 21 -12 33 -13z"/>
<path d="M2657 12722 c-10 -10 -17 -27 -17 -38 0 -16 -11 -22 -60 -32 -118
-25 -229 -127 -230 -212 0 -98 87 -166 263 -204 27 -6 27 -7 27 -91 0 -47 -3
-85 -6 -85 -3 0 -19 8 -34 17 -27 15 -41 35 -54 76 -5 14 -18 17 -91 17 -97 0
-125 -10 -125 -45 0 -96 107 -182 253 -203 50 -7 52 -9 57 -42 4 -31 9 -35 39
-38 45 -5 79 15 83 46 3 22 11 27 60 39 142 31 248 129 248 228 0 44 -33 109
-68 134 -37 26 -124 57 -187 66 l-45 7 0 79 c0 78 0 79 21 68 12 -6 26 -24 32
-40 l11 -29 91 0 c113 1 133 12 115 65 -26 80 -113 139 -221 152 l-49 6 0 38
0 39 -48 0 c-35 0 -54 -5 -65 -18z m-17 -262 l0 -71 -30 16 c-51 27 -50 108 2
118 13 2 24 5 26 6 1 0 2 -31 2 -69z m201 -307 c13 -36 -1 -75 -34 -91 -15 -7
-30 -11 -35 -9 -4 3 -6 39 -4 81 l4 76 29 -16 c17 -8 34 -27 40 -41z"/>
<path d="M652 12714 c-12 -8 -22 -25 -22 -38 0 -20 -9 -25 -67 -40 -77 -18
-165 -74 -201 -126 -31 -45 -31 -125 1 -170 28 -42 103 -84 190 -107 38 -10
68 -21 68 -25 -1 -5 -1 -42 -1 -83 0 -48 -4 -75 -11 -75 -19 0 -79 67 -79 89
0 20 -5 21 -93 21 -80 0 -97 -3 -111 -19 -15 -16 -16 -25 -6 -61 23 -85 112
-149 241 -172 58 -10 59 -10 59 -44 0 -34 0 -34 48 -34 51 0 82 20 82 53 0 10
11 19 28 23 78 18 101 26 151 56 30 18 68 50 85 71 28 35 31 46 31 107 0 54
-5 75 -21 97 -30 40 -103 77 -195 98 l-79 18 0 74 c0 87 15 96 55 33 l25 -40
78 0 c112 0 144 29 108 98 -34 64 -99 105 -199 123 l-67 12 0 39 c0 37 -1 38
-38 38 -21 0 -48 -7 -60 -16z m-26 -226 c-3 -13 -6 -42 -6 -65 0 -48 -7 -52
-38 -23 -43 41 -23 109 32 110 14 0 17 -5 12 -22z m178 -319 c51 -40 26 -129
-36 -129 -16 0 -18 10 -18 75 0 83 7 91 54 54z"/>
<path d="M3697 12712 c-10 -10 -17 -26 -17 -35 0 -10 -11 -19 -27 -23 -139
-30 -246 -111 -260 -197 -16 -102 86 -195 245 -222 l42 -7 0 -84 c0 -64 -3
-84 -14 -84 -24 0 -66 41 -74 73 l-8 32 -90 3 c-80 2 -92 0 -108 -17 -42 -46
16 -151 107 -195 30 -15 84 -32 121 -38 l66 -11 0 -33 c0 -34 0 -34 48 -34 51
0 82 20 82 53 0 16 9 20 70 32 132 27 239 140 227 242 -11 100 -76 144 -269
187 -28 6 -28 8 -28 81 0 41 4 75 8 75 12 0 48 -41 55 -62 10 -27 165 -26 198
1 23 18 23 18 5 64 -28 75 -88 115 -206 138 -59 11 -60 12 -60 45 0 34 0 34
-48 34 -35 0 -54 -5 -65 -18z m-17 -257 c0 -72 -8 -78 -45 -40 -30 29 -32 58
-5 85 38 38 50 27 50 -45z m169 -270 c27 -14 41 -39 41 -77 0 -24 -35 -58 -60
-58 -18 0 -20 7 -20 75 0 41 2 75 5 75 4 0 19 -7 34 -15z"/>
<path d="M1618 12708 c-9 -7 -18 -24 -21 -38 -5 -22 -15 -28 -66 -38 -70 -15
-170 -77 -200 -125 -72 -118 1 -230 180 -276 l74 -19 3 -85 c3 -82 2 -85 -18
-80 -26 7 -70 59 -70 84 0 17 -8 19 -91 19 -98 0 -129 -10 -129 -41 0 -29 28
-90 53 -118 33 -35 133 -80 198 -87 58 -6 58 -6 61 -43 3 -34 5 -36 40 -39 46
-4 88 22 88 53 0 19 7 24 43 29 132 20 257 131 257 230 0 102 -64 158 -218
195 l-77 18 -3 77 c-3 75 -2 77 17 66 12 -6 28 -24 36 -40 15 -30 16 -30 103
-30 103 1 128 13 118 57 -20 82 -104 145 -216 160 -55 8 -55 8 -58 46 -3 36
-4 37 -46 37 -23 0 -49 -6 -58 -12z m-28 -269 l0 -71 -22 14 c-64 42 -55 116
15 127 4 0 7 -31 7 -70z m188 -282 c22 -21 30 -69 14 -95 -5 -7 -23 -16 -40
-21 l-32 -10 0 79 c0 87 7 92 58 47z"/>
<path d="M6647 12702 c-9 -10 -17 -28 -17 -39 0 -16 -9 -22 -42 -27 -93 -15
-208 -90 -234 -152 -28 -66 -13 -134 38 -180 28 -26 92 -59 133 -68 17 -4 47
-12 68 -17 l37 -10 0 -84 c0 -47 -3 -85 -7 -85 -25 0 -72 43 -83 74 l-12 36
-92 0 c-77 0 -96 -3 -109 -18 -13 -14 -15 -25 -7 -51 27 -96 117 -159 253
-179 51 -7 52 -8 55 -45 3 -36 5 -37 40 -37 47 0 82 24 82 56 0 18 5 24 23 24
43 0 142 40 191 78 60 45 87 94 88 160 0 107 -63 160 -237 196 -46 9 -60 16
-59 29 0 9 1 44 2 77 2 56 3 60 21 51 10 -6 24 -24 31 -41 l12 -30 93 0 c75 0
95 3 108 18 13 15 14 22 2 55 -25 74 -89 119 -199 141 -59 12 -61 14 -66 47
-5 32 -7 34 -51 37 -34 2 -49 -2 -62 -16z m-17 -262 l0 -71 -30 16 c-30 15
-45 47 -38 81 3 16 41 43 61 44 4 0 7 -32 7 -70z m198 -331 c3 -50 -6 -63 -51
-74 l-27 -7 0 74 c0 41 3 78 7 81 3 4 20 -1 37 -11 26 -15 31 -25 34 -63z"/>
<path d="M9628 12709 c-10 -5 -18 -21 -18 -34 0 -19 -7 -26 -27 -31 -114 -25
-210 -86 -246 -154 -25 -48 -18 -119 15 -162 31 -41 112 -82 196 -99 l62 -13
0 -83 c0 -65 -3 -83 -14 -83 -25 0 -74 49 -81 80 l-7 30 -86 0 c-73 0 -89 -3
-108 -21 -19 -18 -20 -25 -12 -58 22 -86 98 -143 228 -171 73 -16 75 -17 78
-48 3 -30 6 -32 43 -32 52 0 79 15 79 44 0 20 8 25 58 36 167 37 273 155 242
270 -21 79 -91 127 -224 154 l-61 13 -3 77 c-3 75 -2 77 17 66 12 -6 28 -24
36 -40 15 -30 17 -30 99 -30 66 0 89 4 106 18 l23 18 -20 45 c-35 78 -107 124
-225 144 -35 5 -38 8 -38 40 l0 35 -47 0 c-27 0 -56 -5 -65 -11z m-18 -264 c0
-71 -9 -79 -47 -43 -30 28 -30 72 -1 92 41 29 48 21 48 -49z m184 -286 c13
-12 20 -31 19 -56 -1 -41 -22 -63 -60 -63 -22 0 -23 3 -23 76 0 73 1 75 23 69
12 -4 31 -16 41 -26z"/>
<path d="M7558 12699 c-10 -5 -18 -21 -18 -34 0 -19 -7 -26 -27 -31 -80 -18
-102 -26 -143 -53 -91 -60 -120 -102 -120 -170 0 -96 76 -157 250 -199 l35 -8
3 -82 c2 -67 0 -82 -12 -82 -25 0 -74 49 -81 80 l-7 30 -87 0 c-73 0 -91 -3
-109 -20 -20 -19 -20 -22 -7 -66 26 -86 103 -140 238 -167 59 -12 62 -14 65
-45 3 -30 6 -32 43 -32 53 0 79 15 79 45 0 20 7 25 52 34 74 16 129 43 177 87
54 48 73 86 73 144 0 106 -71 164 -244 200 l-58 11 1 52 c1 29 4 63 8 77 l7
25 27 -27 c15 -15 27 -34 27 -43 0 -12 15 -15 88 -15 94 1 122 12 122 49 0 79
-97 153 -232 176 -35 5 -38 8 -38 40 l0 35 -47 0 c-27 0 -56 -5 -65 -11z m-18
-264 c0 -71 -9 -79 -47 -43 -30 28 -30 72 -1 92 41 29 48 21 48 -49z m184
-286 c13 -12 20 -31 19 -56 -1 -41 -22 -63 -60 -63 -22 0 -23 3 -23 76 0 73 1
75 23 69 12 -4 31 -16 41 -26z"/>
<path d="M8597 12692 c-9 -10 -17 -28 -17 -39 0 -17 -11 -23 -62 -33 -78 -17
-174 -80 -205 -136 -65 -113 8 -219 182 -265 l85 -22 0 -84 c0 -45 -3 -83 -7
-83 -25 0 -72 43 -83 74 l-12 36 -92 0 c-117 0 -131 -10 -110 -82 8 -26 29
-61 47 -79 37 -37 114 -75 172 -84 86 -13 85 -13 85 -50 0 -35 1 -35 43 -35
46 0 72 18 78 54 3 14 21 23 69 35 192 48 285 189 209 317 -25 41 -99 80 -194
102 l-78 19 2 69 c1 38 4 70 5 72 9 9 36 -14 46 -39 l12 -29 93 0 c75 0 95 3
108 18 13 15 14 22 2 56 -26 75 -104 127 -212 142 -51 6 -52 7 -55 43 -3 35
-4 36 -49 39 -34 2 -49 -2 -62 -16z m-21 -330 c-9 -9 -54 27 -61 48 -11 35 3
68 32 78 l28 9 3 -65 c2 -35 1 -67 -2 -70z m185 -211 c47 -38 17 -131 -42
-131 -17 0 -19 8 -19 75 0 67 2 75 19 75 10 0 29 -8 42 -19z"/>
<path d="M2633 11001 c-13 -11 -23 -29 -23 -40 0 -14 -8 -22 -27 -27 -104 -23
-188 -70 -231 -132 -85 -118 17 -254 216 -287 l42 -7 0 -84 c0 -64 -3 -84 -14
-84 -24 0 -66 41 -74 73 l-8 32 -90 3 c-80 2 -92 0 -108 -17 -41 -46 16 -151
106 -194 29 -15 83 -32 121 -38 67 -12 67 -13 67 -46 0 -33 0 -33 48 -33 51 0
82 20 82 53 0 16 9 20 70 32 119 24 230 131 230 223 0 102 -80 168 -242 202
l-58 11 0 75 c0 41 4 74 8 74 12 0 48 -41 55 -62 10 -27 165 -26 198 1 23 18
23 18 5 64 -28 74 -87 114 -206 139 -58 12 -59 13 -62 47 -3 34 -5 36 -43 38
-28 2 -47 -3 -62 -16z m-23 -266 c0 -72 -8 -78 -45 -40 -30 29 -32 58 -5 85
38 38 50 27 50 -45z m169 -270 c31 -15 41 -33 41 -71 0 -29 -33 -64 -60 -64
-18 0 -20 7 -20 75 0 41 2 75 5 75 4 0 19 -7 34 -15z"/>
<path d="M618 10987 c-9 -7 -18 -24 -20 -37 -2 -19 -12 -26 -53 -35 -74 -18
-105 -32 -153 -72 -58 -48 -82 -88 -82 -141 0 -95 67 -157 210 -192 l65 -16 3
-88 3 -87 -32 16 c-19 10 -37 32 -48 56 l-16 39 -90 0 c-133 -1 -148 -22 -89
-127 37 -64 155 -122 247 -123 24 0 27 -4 27 -34 0 -36 12 -46 59 -46 36 0 71
26 71 54 0 20 6 25 43 30 94 14 207 88 244 159 20 40 14 134 -12 170 -26 36
-124 84 -205 100 l-65 13 -3 77 c-2 42 1 77 5 77 16 -1 43 -28 52 -53 10 -26
12 -27 99 -27 107 0 128 11 118 60 -15 78 -102 141 -216 157 -55 8 -55 8 -58
46 -3 36 -4 37 -45 37 -23 0 -49 -6 -59 -13z m-18 -268 l0 -71 -32 19 c-43 25
-52 82 -16 107 41 29 48 22 48 -55z m159 -264 c32 -16 41 -33 41 -74 0 -35
-18 -57 -52 -65 l-28 -6 0 80 c0 44 2 80 5 80 4 0 19 -7 34 -15z"/>
<path d="M1584 10979 c-10 -11 -18 -29 -16 -39 2 -14 -6 -20 -30 -25 -75 -15
-131 -39 -178 -76 -61 -48 -82 -88 -82 -151 0 -88 71 -149 215 -184 l67 -17 0
-83 c0 -46 -2 -84 -5 -84 -25 0 -65 35 -79 70 l-16 40 -88 0 c-76 0 -91 -3
-107 -20 -16 -18 -17 -25 -6 -61 26 -86 114 -148 242 -171 58 -10 59 -10 59
-44 0 -34 0 -34 48 -34 51 0 82 20 82 52 0 16 20 28 48 28 31 1 130 47 173 80
73 59 99 157 61 230 -26 49 -107 95 -203 116 l-79 17 0 73 c0 43 4 74 10 74
15 0 50 -38 50 -54 0 -19 14 -23 101 -25 61 -2 80 1 98 16 19 16 22 25 16 52
-9 41 -57 97 -106 121 -20 11 -67 25 -103 32 -65 12 -65 13 -68 48 -3 33 -5
35 -44 38 -31 2 -44 -2 -60 -19z m-14 -218 c0 -37 -13 -111 -19 -111 -4 0 -17
9 -29 20 -28 26 -30 84 -4 99 28 17 52 13 52 -8z m175 -326 c44 -43 21 -125
-35 -125 -18 0 -20 7 -20 75 0 84 11 95 55 50z"/>
<path d="M9597 10982 c-9 -10 -17 -28 -17 -39 0 -17 -10 -22 -60 -32 -76 -15
-176 -81 -207 -137 -38 -66 -27 -140 29 -190 42 -39 100 -63 211 -88 27 -6 27
-7 27 -91 0 -47 -3 -85 -7 -85 -25 0 -72 43 -83 74 l-12 36 -88 0 c-69 0 -92
-4 -108 -17 -19 -17 -19 -21 -6 -63 24 -80 116 -149 219 -165 86 -13 85 -13
85 -50 0 -35 1 -35 43 -35 49 1 74 16 79 49 2 20 13 26 68 40 189 47 281 182
214 313 -20 39 -106 85 -196 105 l-78 16 0 79 c0 76 1 78 20 66 11 -7 26 -25
33 -40 12 -28 13 -28 103 -28 74 0 94 3 107 18 13 15 14 22 2 56 -26 75 -104
127 -212 142 -51 6 -52 7 -55 43 -3 35 -4 36 -49 39 -34 2 -49 -2 -62 -16z
m-21 -330 c-11 -10 -56 29 -62 54 -9 35 10 72 38 76 22 3 23 -1 26 -61 2 -35
1 -66 -2 -69z m184 -210 c16 -13 22 -29 22 -56 0 -43 -14 -62 -54 -71 l-28 -7
0 76 c0 68 2 76 19 76 10 0 29 -8 41 -18z"/>
<path d="M8578 10972 c-17 -10 -28 -25 -28 -39 0 -17 -7 -24 -27 -29 -105 -23
-199 -78 -239 -139 -25 -39 -29 -106 -9 -149 29 -60 125 -115 235 -132 l40 -7
0 -89 0 -90 -32 19 c-20 11 -41 36 -53 61 l-19 42 -87 0 c-71 0 -89 -3 -102
-18 -21 -23 -21 -54 -1 -95 38 -74 96 -111 214 -137 73 -16 75 -17 78 -48 3
-31 5 -32 51 -32 51 0 71 12 71 45 0 18 9 24 58 35 204 45 309 205 215 329
-30 39 -107 77 -195 95 l-63 13 -3 76 c-2 45 1 77 7 77 13 0 51 -49 51 -66 0
-23 171 -19 199 4 20 15 21 20 10 52 -19 54 -38 79 -83 104 -44 25 -88 41
-148 51 -35 5 -38 9 -38 39 0 29 -4 34 -31 40 -41 8 -40 8 -71 -12z m-28 -267
c0 -73 -14 -84 -49 -39 -26 33 -27 58 -1 84 38 38 50 27 50 -45z m191 -294
c36 -46 8 -111 -48 -111 -20 0 -23 5 -23 38 0 20 3 53 6 73 5 30 10 36 25 32
11 -3 29 -17 40 -32z"/>
<path d="M713 9355 c-13 -9 -23 -27 -23 -39 0 -25 -17 -36 -53 -36 -31 0 -122
-44 -168 -81 -52 -41 -69 -76 -69 -143 0 -48 4 -60 32 -92 38 -43 109 -79 191
-96 l57 -12 0 -83 c0 -52 -4 -83 -11 -83 -25 0 -52 25 -70 66 l-20 44 -82 0
c-88 0 -127 -15 -127 -49 0 -36 51 -119 90 -146 40 -27 154 -65 197 -65 20 0
23 -5 23 -35 l0 -35 48 0 c51 0 82 20 82 52 0 11 15 20 50 27 190 41 295 183
230 311 -30 59 -99 92 -252 125 -28 5 -28 7 -28 80 0 41 4 75 8 75 12 0 48
-41 55 -62 5 -15 20 -18 95 -18 75 0 92 3 106 19 26 29 12 76 -38 126 -43 43
-98 67 -183 80 -41 6 -43 8 -43 41 0 26 -4 34 -17 34 -10 0 -27 3 -38 6 -11 2
-30 -2 -42 -11z m-33 -270 c0 -36 -4 -65 -9 -65 -5 0 -19 8 -32 18 -28 24 -31
79 -4 98 37 27 45 18 45 -51z m169 -270 c16 -8 31 -22 35 -30 18 -48 -9 -105
-50 -105 -23 0 -24 2 -24 75 0 41 2 75 5 75 4 0 19 -7 34 -15z"/>
<path d="M1672 9344 c-12 -8 -22 -26 -22 -39 0 -20 -7 -24 -41 -30 -144 -24
-260 -136 -246 -236 12 -91 88 -145 260 -183 27 -6 27 -7 27 -91 0 -47 -3 -85
-6 -85 -3 0 -19 8 -34 17 -27 15 -41 35 -54 76 -5 14 -18 17 -91 17 -97 0
-125 -10 -125 -45 0 -88 104 -180 225 -200 86 -14 85 -13 85 -50 0 -35 1 -35
43 -35 47 0 87 27 87 59 0 14 10 20 43 25 97 15 205 88 238 161 24 51 23 89 0
142 -26 57 -79 89 -189 116 l-92 22 0 78 c0 76 0 77 21 66 12 -6 26 -24 32
-40 l11 -29 91 0 c113 1 133 12 115 65 -26 80 -113 139 -221 152 l-49 6 0 38
0 39 -43 0 c-23 0 -53 -7 -65 -16z m-22 -264 l0 -70 -24 11 c-30 14 -48 52
-40 84 5 20 21 32 62 44 1 1 2 -30 2 -69z m187 -286 c21 -21 24 -32 20 -61 -7
-42 -12 -48 -49 -57 l-28 -6 0 75 c0 85 11 95 57 49z"/>
<path d="M9688 9347 c-9 -7 -18 -23 -20 -36 -2 -20 -13 -26 -68 -40 -65 -16
-109 -41 -163 -90 -40 -36 -57 -73 -57 -121 0 -95 64 -152 213 -189 l72 -19 3
-77 c2 -43 -1 -82 -5 -86 -14 -14 -72 31 -85 67 l-12 34 -91 0 c-115 -1 -131
-10 -115 -70 24 -90 122 -159 249 -176 50 -6 51 -8 51 -39 0 -35 13 -45 59
-45 36 0 71 26 71 54 0 20 6 25 43 30 52 8 139 47 181 82 79 66 101 172 51
246 -28 41 -99 79 -185 98 -98 21 -90 13 -90 96 0 41 3 74 6 74 18 0 43 -23
54 -50 l12 -30 85 0 c98 0 123 10 123 48 0 81 -99 154 -240 176 -32 5 -35 9
-35 39 0 31 -1 32 -45 34 -25 2 -52 -3 -62 -10z m-18 -262 c0 -72 -12 -83 -50
-45 -27 27 -26 75 2 94 41 29 48 21 48 -49z m168 -275 c28 -17 32 -25 32 -63
0 -50 -13 -67 -52 -67 l-28 0 0 75 c0 41 3 75 8 75 4 0 22 -9 40 -20z"/>
<path d="M8662 9334 c-12 -8 -22 -25 -22 -37 0 -19 -10 -25 -70 -41 -84 -21
-178 -86 -203 -139 -9 -19 -17 -54 -17 -77 0 -87 66 -145 209 -184 l76 -22 3
-82 c2 -67 0 -82 -12 -82 -25 0 -74 49 -81 80 l-7 30 -88 0 c-69 0 -92 -4
-109 -17 -19 -16 -20 -22 -10 -58 24 -89 97 -145 220 -171 89 -18 91 -20 87
-52 -3 -25 0 -27 36 -30 50 -4 86 14 86 44 0 23 7 27 70 39 83 17 192 93 216
152 8 18 14 54 14 80 0 96 -62 151 -209 186 l-91 22 0 72 c0 82 13 94 49 46
12 -16 26 -34 31 -40 7 -8 38 -13 83 -13 116 0 141 32 92 116 -20 33 -39 50
-88 73 -34 16 -83 33 -109 37 -42 5 -48 9 -48 29 0 43 -10 55 -49 55 -20 0
-47 -7 -59 -16z m-22 -269 c0 -36 -4 -65 -9 -65 -4 0 -20 9 -35 21 -44 35 -28
109 25 109 17 0 19 -7 19 -65z m174 -276 c20 -15 26 -29 26 -57 0 -48 -9 -60
-48 -68 l-32 -6 0 76 c0 84 7 92 54 55z"/>
<path d="M617 7652 c-10 -10 -17 -28 -17 -39 0 -17 -8 -23 -42 -28 -90 -15
-201 -84 -233 -145 -21 -40 -19 -119 3 -153 36 -53 116 -95 235 -121 27 -6 27
-7 27 -91 0 -47 -4 -85 -9 -85 -21 0 -70 52 -76 80 l-7 30 -92 0 c-76 0 -96
-3 -109 -18 -33 -36 14 -137 85 -180 29 -18 101 -41 180 -57 21 -4 27 -11 30
-38 3 -30 5 -32 47 -35 47 -4 78 15 83 51 2 16 15 23 61 34 99 22 190 83 221
147 20 42 21 118 1 155 -31 60 -122 108 -246 127 l-39 7 0 73 c0 55 3 74 13
74 16 0 41 -27 50 -53 6 -16 18 -17 103 -15 106 3 123 12 111 60 -19 75 -91
128 -207 151 -65 14 -65 14 -68 50 -3 36 -4 37 -46 37 -29 0 -48 -6 -59 -18z
m-17 -267 c0 -36 -4 -65 -9 -65 -4 0 -20 9 -35 21 -18 14 -26 30 -26 53 0 38
15 56 47 56 22 0 23 -4 23 -65z m174 -276 c20 -16 26 -29 26 -59 0 -41 -11
-55 -53 -65 l-27 -7 0 76 c0 84 7 92 54 55z"/>
<path d="M9603 7654 c-13 -9 -23 -27 -23 -39 0 -19 -8 -25 -52 -35 -134 -31
-238 -125 -238 -213 0 -94 83 -165 233 -198 l57 -12 0 -84 c0 -63 -3 -83 -14
-83 -24 0 -64 40 -76 75 l-12 35 -84 0 c-106 0 -135 -15 -124 -63 24 -107 109
-169 264 -192 44 -7 46 -9 46 -41 0 -33 1 -34 41 -34 53 0 79 15 79 45 0 19 7
26 28 30 111 23 169 53 225 114 44 49 61 104 48 162 -18 79 -92 129 -233 159
l-58 11 0 76 c0 85 9 90 49 30 l24 -37 81 0 c106 1 131 16 115 73 -21 77 -106
134 -226 153 -40 6 -42 8 -45 43 -3 34 -5 36 -43 38 -24 2 -49 -4 -62 -13z
m-23 -269 c0 -72 -8 -78 -45 -40 -41 40 -25 105 26 105 17 0 19 -7 19 -65z
m164 -266 c65 -30 48 -139 -21 -139 -22 0 -23 4 -23 68 0 59 4 82 16 82 2 0
14 -5 28 -11z"/>
<path d="M1579 7643 c-8 -9 -13 -24 -11 -34 2 -13 -5 -20 -25 -25 -151 -33
-257 -114 -264 -199 -4 -62 2 -85 33 -121 38 -43 109 -79 191 -96 l57 -12 0
-89 0 -89 -32 19 c-31 18 -50 44 -62 86 -8 26 -164 25 -197 -1 -21 -18 -22
-21 -9 -67 25 -89 119 -154 249 -171 50 -6 51 -7 51 -40 0 -34 0 -34 48 -34
53 1 82 17 82 49 0 11 6 21 14 21 8 0 43 9 79 20 121 37 207 129 207 221 0 92
-69 156 -199 185 -42 9 -82 18 -88 20 -15 4 -19 154 -5 154 12 0 48 -41 55
-62 5 -15 20 -18 95 -18 73 0 92 3 105 18 22 24 21 34 -3 82 -33 65 -105 106
-222 125 -35 5 -38 8 -38 40 l0 35 -49 0 c-33 0 -53 -5 -62 -17z m-17 -258
c-1 -32 -5 -61 -7 -63 -2 -3 -16 3 -30 12 -47 31 -28 122 25 113 12 -2 14 -16
12 -62z m167 -270 c64 -33 53 -135 -15 -135 -23 0 -24 2 -24 75 0 41 2 75 5
75 4 0 19 -7 34 -15z"/>
<path d="M8567 7632 c-10 -10 -17 -28 -17 -39 0 -17 -8 -22 -43 -27 -104 -16
-229 -108 -242 -180 -21 -111 47 -184 206 -225 l74 -19 3 -86 c1 -47 0 -86 -4
-86 -3 0 -19 8 -34 17 -27 16 -41 35 -54 76 -5 16 -17 17 -102 15 -111 -3
-121 -10 -110 -74 15 -81 123 -154 254 -172 44 -7 47 -9 52 -42 4 -31 9 -35
38 -38 40 -4 79 19 84 50 2 17 14 24 60 35 155 35 264 150 244 258 -16 83 -99
143 -228 166 l-68 12 0 79 c0 77 0 78 21 67 12 -6 26 -24 32 -40 l11 -29 92 0
c76 0 94 3 108 19 16 17 16 21 0 60 -17 43 -69 95 -113 113 -14 6 -53 16 -86
22 -60 12 -60 12 -63 49 l-3 37 -48 0 c-34 0 -53 -5 -64 -18z m-17 -262 l0
-71 -29 16 c-63 32 -48 119 22 124 4 1 7 -31 7 -69z m202 -312 c13 -37 -9 -80
-45 -89 -20 -5 -30 -4 -33 6 -4 9 0 109 5 143 3 14 66 -39 73 -60z"/>
<path d="M669 5893 c-8 -9 -13 -24 -11 -34 3 -18 -5 -22 -68 -34 -42 -9 -103
-39 -147 -73 -97 -73 -101 -197 -9 -267 40 -31 113 -60 174 -70 l42 -7 0 -84
c0 -51 -4 -84 -10 -84 -24 0 -59 34 -74 71 l-16 39 -83 0 c-123 0 -146 -22
-108 -105 36 -80 110 -128 225 -147 66 -11 66 -11 66 -44 0 -34 0 -34 48 -34
53 1 82 17 82 47 0 16 12 23 67 37 78 19 159 68 199 122 21 27 29 50 32 92 6
107 -53 165 -210 203 l-88 21 0 74 c0 41 3 74 6 74 18 0 43 -24 52 -50 l11
-30 89 0 c76 0 92 3 107 20 12 13 15 27 11 46 -19 75 -87 127 -197 150 l-79
17 0 34 c0 33 0 33 -49 33 -33 0 -53 -5 -62 -17z m-9 -258 c0 -70 -7 -78 -48
-49 -28 20 -31 88 -4 103 42 25 52 15 52 -54z m159 -270 c64 -33 53 -135 -15
-135 -23 0 -24 2 -24 75 0 41 2 75 5 75 4 0 19 -7 34 -15z"/>
<path d="M1642 5894 c-12 -8 -22 -25 -22 -37 0 -19 -10 -25 -70 -41 -47 -12
-87 -31 -122 -57 -70 -52 -92 -90 -92 -155 0 -64 30 -108 100 -146 44 -24 74
-34 157 -52 27 -6 27 -7 27 -91 0 -47 -4 -85 -9 -85 -18 0 -64 45 -77 77 l-14
33 -86 0 c-125 0 -143 -16 -108 -98 31 -75 112 -131 214 -146 74 -12 79 -15
82 -49 3 -29 6 -32 40 -35 47 -4 88 21 88 54 0 18 5 24 23 24 33 0 116 29 157
56 133 84 159 231 55 310 -37 28 -123 60 -190 69 l-45 7 0 79 c0 78 0 79 21
68 12 -6 26 -24 32 -40 l11 -29 91 0 c115 1 134 12 116 69 -22 76 -143 151
-244 151 -25 0 -27 3 -27 40 l0 40 -43 0 c-23 0 -53 -7 -65 -16z m-22 -264 l0
-70 -24 12 c-33 15 -51 59 -36 88 9 17 33 33 58 39 1 1 2 -30 2 -69z m187
-286 c21 -21 24 -32 20 -61 -7 -42 -12 -48 -49 -57 l-28 -6 0 75 c0 85 11 95
57 49z"/>
<path d="M9658 5897 c-9 -7 -18 -24 -20 -37 -2 -19 -12 -26 -53 -35 -98 -22
-195 -89 -221 -152 -48 -114 26 -209 196 -252 l75 -19 3 -72 c2 -40 1 -79 -2
-87 -10 -24 -67 16 -84 60 l-15 37 -92 0 c-74 0 -95 -3 -106 -16 -28 -34 -2
-101 57 -154 46 -40 89 -59 174 -74 63 -12 65 -13 70 -46 5 -32 7 -34 47 -33
50 1 73 16 73 48 0 19 7 24 42 29 93 15 196 77 234 141 33 57 33 138 1 186
-29 43 -111 84 -202 102 l-70 14 -3 63 c-2 34 -1 69 2 77 9 22 46 -3 58 -38
10 -29 10 -29 95 -29 46 0 93 5 104 10 41 22 13 104 -53 153 -36 27 -115 57
-151 57 -33 0 -45 12 -49 45 -3 28 -6 30 -48 32 -25 2 -52 -3 -62 -10z m-18
-262 c0 -72 -12 -83 -50 -45 -27 27 -26 75 2 94 41 29 48 21 48 -49z m168
-275 c28 -17 32 -25 32 -64 0 -47 -11 -62 -50 -68 -25 -3 -25 -2 -28 75 -2 42
1 77 5 77 4 0 23 -9 41 -20z"/>
<path d="M8633 5885 c-13 -9 -23 -26 -23 -39 0 -20 -9 -25 -67 -40 -75 -18
-161 -71 -196 -120 -17 -24 -22 -45 -22 -93 0 -59 2 -64 39 -102 43 -44 101
-72 189 -92 l57 -12 0 -84 c0 -63 -3 -83 -14 -83 -24 0 -65 40 -77 75 l-13 35
-86 0 c-106 0 -132 -13 -121 -62 25 -108 104 -166 263 -193 33 -5 37 -9 40
-38 3 -29 6 -32 42 -35 50 -4 86 14 86 44 0 18 7 25 28 30 111 24 198 72 244
135 46 61 41 158 -10 212 -37 39 -67 54 -169 81 l-88 23 -3 71 c-2 58 0 72 12
72 13 0 50 -38 58 -60 2 -4 39 -11 83 -15 72 -6 83 -5 107 14 24 20 26 24 16
54 -27 81 -92 128 -207 149 -59 11 -60 12 -63 47 -3 34 -5 36 -43 39 -25 2
-49 -3 -62 -13z m-23 -270 c0 -36 -4 -65 -9 -65 -4 0 -20 9 -35 21 -44 35 -28
109 25 109 17 0 19 -7 19 -65z m174 -276 c20 -15 26 -29 26 -57 0 -48 -9 -60
-48 -68 l-32 -6 0 76 c0 84 7 92 54 55z"/>
<path d="M673 4288 c-11 -13 -18 -29 -16 -35 5 -14 -13 -22 -97 -47 -64 -18
-146 -77 -173 -123 -23 -40 -24 -110 -3 -151 28 -55 123 -107 229 -126 l37 -7
0 -84 c0 -47 -2 -85 -5 -85 -23 0 -59 31 -76 67 l-21 43 -87 0 c-75 0 -91 -3
-106 -20 -16 -18 -17 -25 -6 -61 26 -86 114 -148 242 -171 58 -10 59 -10 59
-44 0 -34 0 -34 48 -34 51 0 82 20 82 53 0 10 11 19 28 23 184 40 280 130 270
251 -3 32 -13 65 -25 81 -29 39 -103 76 -194 97 l-79 18 0 74 c0 42 4 73 10
73 15 0 50 -38 50 -54 0 -20 23 -26 105 -26 92 0 121 18 110 69 -9 41 -57 97
-106 121 -20 11 -67 25 -103 32 l-66 13 0 37 0 38 -43 0 c-32 0 -49 -6 -64
-22z m-13 -263 c0 -71 -10 -80 -48 -45 -43 40 -24 109 31 110 14 0 17 -10 17
-65z m174 -276 c51 -40 26 -129 -36 -129 -16 0 -18 10 -18 75 0 83 7 91 54 54z"/>
<path d="M1637 4282 c-10 -10 -17 -27 -17 -38 0 -16 -11 -22 -59 -32 -69 -14
-174 -79 -201 -125 -32 -53 -35 -101 -8 -155 29 -59 85 -95 188 -121 l75 -19
3 -86 c2 -59 -1 -86 -9 -86 -19 0 -79 67 -79 89 0 21 -4 22 -101 19 -82 -2
-104 -6 -112 -20 -15 -22 6 -88 40 -129 35 -42 132 -87 204 -95 58 -6 58 -6
61 -43 3 -34 5 -36 43 -39 45 -3 85 24 85 57 0 14 10 20 43 25 133 20 256 131
257 233 0 98 -65 156 -218 192 l-77 18 -3 77 c-3 75 -2 77 17 66 12 -6 28 -24
36 -40 15 -30 16 -30 103 -30 112 1 131 12 113 69 -22 76 -104 133 -212 148
-54 8 -54 8 -57 46 l-3 37 -48 0 c-34 0 -53 -5 -64 -18z m-17 -262 c0 -68 -1
-70 -20 -60 -66 35 -57 123 13 129 4 1 7 -31 7 -69z m191 -289 c15 -19 19 -35
15 -60 -6 -40 -5 -39 -45 -51 l-31 -9 0 79 c0 74 1 78 20 73 11 -3 30 -17 41
-32z"/>
<path d="M9658 4289 c-10 -5 -18 -21 -18 -33 0 -23 -17 -36 -45 -36 -35 0
-127 -44 -169 -81 -58 -51 -76 -85 -76 -142 0 -88 73 -150 218 -186 l67 -17 3
-82 c3 -74 1 -82 -16 -82 -21 0 -63 43 -80 83 -11 26 -13 27 -94 27 -63 0 -88
-5 -106 -18 -22 -17 -22 -19 -7 -67 25 -86 95 -137 225 -165 73 -16 75 -17 78
-48 3 -30 6 -32 43 -32 52 0 79 15 79 44 0 19 7 25 37 31 104 19 213 88 248
156 8 15 15 52 15 82 0 110 -66 159 -272 202 -28 5 -28 7 -28 80 0 41 3 75 8
75 18 0 50 -31 56 -55 6 -24 9 -25 94 -25 94 1 122 12 122 49 0 79 -97 153
-232 176 -35 5 -38 8 -38 40 l0 35 -47 0 c-27 0 -56 -5 -65 -11z m-18 -264 c0
-71 -9 -79 -47 -43 -30 28 -30 72 -1 92 41 29 48 21 48 -49z m183 -283 c22
-19 23 -85 1 -106 -8 -9 -26 -16 -40 -16 -23 0 -24 2 -24 76 0 74 1 75 23 68
12 -3 30 -13 40 -22z"/>
<path d="M8627 4272 c-9 -10 -17 -28 -17 -39 0 -17 -10 -22 -59 -32 -68 -13
-166 -72 -201 -121 -28 -39 -37 -109 -20 -150 26 -64 122 -120 248 -145 l32
-7 0 -84 c0 -46 -3 -84 -7 -84 -24 0 -73 43 -84 74 l-13 36 -90 0 c-107 0
-128 -11 -116 -65 13 -56 49 -104 104 -135 44 -26 81 -37 181 -55 15 -3 20
-12 20 -37 0 -32 2 -33 44 -36 47 -4 78 15 83 51 2 16 15 23 61 34 248 56 328
285 134 384 -20 11 -72 27 -115 37 l-77 18 -3 73 c-3 65 -1 72 15 69 10 -2 27
-18 38 -35 l20 -32 91 -1 c74 0 94 3 107 18 13 15 14 22 2 55 -7 22 -24 50
-36 63 -32 35 -115 72 -176 80 -51 6 -52 7 -55 43 -3 35 -4 36 -49 39 -34 2
-49 -2 -62 -16z m-21 -330 c-11 -10 -56 29 -62 54 -9 35 10 72 38 76 22 3 23
-1 26 -61 2 -35 1 -66 -2 -69z m182 -212 c31 -29 31 -93 0 -114 -12 -9 -30
-16 -40 -16 -16 0 -18 10 -18 75 0 66 2 75 18 75 10 0 28 -9 40 -20z"/>
<path d="M2603 2523 c-13 -8 -23 -26 -23 -38 0 -20 -8 -25 -50 -34 -114 -24
-211 -101 -230 -181 -16 -65 -1 -109 52 -154 38 -33 117 -65 196 -81 l32 -7 0
-84 c0 -66 -3 -84 -14 -84 -21 0 -74 56 -78 83 -3 21 -9 22 -88 25 -125 4
-151 -18 -116 -101 30 -71 120 -128 235 -148 61 -11 61 -11 61 -45 0 -34 0
-34 48 -34 52 0 77 16 84 55 2 14 14 21 44 26 137 24 254 130 254 230 -1 97
-63 153 -213 191 l-87 23 0 72 c0 42 4 73 10 73 15 0 50 -38 50 -54 0 -28 160
-37 198 -10 27 19 28 34 2 84 -34 66 -108 109 -214 125 -46 7 -46 8 -46 46 l0
39 -42 -1 c-24 0 -53 -7 -65 -16z m-23 -268 c0 -39 -4 -65 -10 -65 -18 0 -60
48 -60 67 0 28 29 63 51 63 17 0 19 -7 19 -65z m185 -280 c44 -43 29 -107 -27
-121 l-28 -6 0 76 c0 85 11 96 55 51z"/>
<path d="M3645 2516 c-11 -8 -20 -24 -20 -36 0 -19 -10 -25 -67 -39 -78 -20
-168 -77 -198 -127 -70 -112 2 -227 168 -269 37 -9 73 -19 80 -21 8 -2 12 -29
12 -88 0 -79 -1 -84 -20 -79 -26 7 -70 59 -70 84 0 17 -8 19 -93 19 -113 0
-133 -10 -123 -62 17 -91 124 -170 247 -184 58 -6 58 -6 61 -43 3 -34 5 -36
40 -39 46 -4 88 22 88 53 0 19 7 24 43 29 94 14 208 90 241 160 30 64 15 147
-35 193 -34 31 -104 60 -182 75 l-67 13 0 78 c0 74 1 77 20 67 11 -6 27 -24
35 -40 15 -30 16 -30 103 -30 103 1 128 13 117 57 -12 48 -45 92 -88 117 -38
22 -65 31 -159 51 -24 5 -28 10 -28 40 0 35 -1 35 -43 35 -24 0 -52 -6 -62
-14z m-25 -266 c0 -68 -1 -70 -20 -60 -66 35 -57 123 13 129 4 1 7 -31 7 -69z
m188 -283 c25 -23 30 -73 10 -99 -7 -9 -25 -18 -40 -20 l-28 -5 0 78 c0 86 7
91 58 46z"/>
<path d="M588 2508 c-9 -7 -18 -24 -20 -37 -3 -21 -12 -26 -61 -38 -71 -16
-107 -34 -158 -80 -52 -47 -69 -81 -69 -136 0 -86 74 -151 210 -186 l75 -19 2
-73 c2 -41 0 -80 -2 -87 -8 -23 -64 19 -86 65 l-21 43 -81 0 c-63 0 -87 -5
-105 -18 -22 -17 -23 -21 -12 -63 24 -88 124 -158 253 -175 45 -7 47 -8 47
-40 0 -34 0 -34 46 -34 57 0 84 14 84 44 0 21 6 25 43 31 92 15 208 89 243
156 22 44 18 130 -9 170 -29 43 -111 84 -202 102 l-70 14 -3 76 c-2 42 0 77 3
77 19 0 44 -23 55 -50 l12 -30 87 0 c56 1 92 5 104 14 38 29 8 103 -63 155
-37 26 -69 37 -167 56 -30 6 -33 10 -33 41 0 33 -1 34 -43 34 -24 0 -50 -6
-59 -12z m-18 -263 c0 -72 -12 -83 -50 -45 -27 27 -26 75 2 94 41 29 48 21 48
-49z m168 -275 c26 -16 32 -26 32 -56 0 -51 -15 -74 -50 -74 l-30 0 0 75 c0
41 3 75 8 75 4 0 22 -9 40 -20z"/>
<path d="M1557 2502 c-10 -10 -17 -28 -17 -39 0 -17 -8 -23 -42 -28 -108 -17
-226 -104 -247 -181 -12 -43 -3 -89 24 -130 22 -35 108 -80 187 -99 l68 -17 0
-84 c0 -54 -4 -84 -11 -84 -19 0 -79 67 -79 89 0 20 -5 21 -93 21 -80 0 -97
-3 -111 -19 -37 -40 15 -137 99 -186 34 -20 149 -54 187 -55 4 0 8 -15 10 -32
3 -31 5 -33 47 -36 49 -4 81 17 81 52 0 18 9 23 61 33 130 25 239 126 239 222
0 101 -61 158 -207 194 l-93 22 0 73 c0 54 3 72 13 72 19 0 47 -33 47 -53 0
-15 13 -17 99 -17 112 0 127 8 116 61 -16 72 -113 140 -223 155 l-52 7 0 38 0
39 -43 0 c-30 0 -49 -6 -60 -18z m-27 -268 c0 -68 -3 -70 -42 -36 -21 17 -24
72 -6 90 7 7 20 12 30 12 16 0 18 -9 18 -66z m184 -275 c47 -37 31 -111 -26
-125 l-28 -6 0 76 c0 84 7 92 54 55z"/>
<path d="M6593 2505 c-13 -9 -23 -26 -23 -39 0 -19 -8 -24 -52 -35 -152 -35
-253 -141 -234 -245 14 -75 104 -140 229 -166 l57 -11 0 -85 c0 -54 -4 -84
-11 -84 -24 0 -68 42 -79 75 l-12 35 -87 0 c-108 0 -133 -13 -121 -64 23 -102
115 -168 268 -191 40 -6 42 -8 42 -41 0 -33 1 -34 43 -34 49 1 74 16 79 50 2
20 12 25 58 35 207 41 313 224 199 341 -35 37 -100 65 -191 84 l-58 11 0 76
c0 83 10 90 45 35 20 -31 20 -31 110 -31 63 0 96 4 109 14 18 14 18 16 2 60
-10 26 -33 58 -54 75 -37 30 -143 70 -187 70 -20 0 -24 6 -27 38 -3 36 -5 37
-43 40 -25 2 -49 -3 -62 -13z m-23 -270 c0 -72 -8 -78 -45 -40 -41 40 -25 105
26 105 17 0 19 -7 19 -65z m169 -270 c49 -25 52 -108 4 -126 -51 -19 -55 -15
-52 66 2 41 7 75 12 75 4 0 21 -7 36 -15z"/>
<path d="M9567 2502 c-10 -10 -17 -28 -17 -39 0 -16 -9 -22 -42 -27 -143 -23
-257 -132 -245 -234 9 -82 77 -138 207 -171 l75 -19 3 -86 c1 -47 0 -86 -4
-86 -3 0 -19 8 -34 17 -27 16 -41 35 -54 76 -5 16 -17 17 -102 15 -110 -3
-121 -11 -110 -73 10 -53 86 -127 154 -149 29 -10 74 -21 100 -24 44 -7 47 -9
52 -42 5 -32 8 -35 43 -38 43 -4 74 16 79 51 2 16 15 23 61 34 180 40 283 173
229 295 -11 25 -33 55 -50 67 -37 26 -124 57 -187 66 l-45 7 0 79 c0 78 0 79
21 68 12 -6 26 -24 32 -40 l11 -29 92 0 c76 0 94 3 108 19 16 17 16 21 0 60
-9 23 -34 57 -56 75 -39 33 -128 66 -181 66 -25 0 -27 3 -27 40 l0 40 -48 0
c-35 0 -54 -5 -65 -18z m-17 -262 l0 -71 -29 16 c-63 32 -48 119 22 124 4 1 7
-31 7 -69z m200 -299 c23 -44 -3 -98 -49 -103 -24 -3 -24 -2 -23 72 1 41 1 76
2 78 1 9 61 -32 70 -47z"/>
<path d="M7497 2492 c-10 -10 -17 -28 -17 -39 0 -17 -8 -22 -43 -27 -104 -16
-229 -108 -242 -180 -21 -111 47 -184 206 -225 l74 -19 3 -86 c1 -47 0 -86 -4
-86 -22 0 -67 40 -81 72 l-17 38 -90 0 c-116 0 -131 -11 -111 -77 27 -89 119
-152 248 -171 50 -7 52 -9 57 -42 5 -32 8 -35 43 -38 43 -4 74 16 79 51 2 16
15 23 53 32 162 37 271 151 251 260 -16 82 -98 142 -229 167 l-67 13 0 78 c0
76 0 77 21 66 12 -6 26 -24 32 -40 l11 -29 92 0 c76 0 94 3 108 19 16 18 16
22 1 57 -31 75 -91 116 -199 138 -60 13 -61 13 -64 49 l-3 37 -48 0 c-34 0
-53 -5 -64 -18z m-17 -262 l0 -71 -29 16 c-63 32 -48 119 22 124 4 1 7 -31 7
-69z m204 -311 c12 -35 -11 -81 -46 -90 -15 -4 -29 -4 -32 -1 -8 8 -7 137 1
145 11 12 68 -28 77 -54z"/>
<path d="M8543 2494 c-13 -9 -23 -27 -23 -40 0 -18 -7 -25 -27 -30 -104 -23
-199 -78 -238 -138 -76 -115 30 -249 223 -281 l42 -7 0 -84 c0 -64 -3 -84 -14
-84 -24 0 -64 40 -76 75 l-12 35 -87 0 c-75 0 -91 -3 -106 -20 -40 -45 18
-150 107 -193 29 -15 83 -32 121 -38 67 -12 67 -13 67 -46 0 -33 0 -33 48 -33
52 0 72 12 72 46 0 18 10 24 67 38 159 39 260 149 239 261 -14 75 -105 140
-222 160 -77 13 -74 9 -74 92 0 85 9 90 49 30 l24 -37 81 0 c130 0 151 29 90
123 -30 45 -118 92 -195 102 -48 7 -49 8 -49 41 0 22 -5 34 -14 34 -7 0 -26 2
-42 5 -18 3 -38 -2 -51 -11z m-23 -269 c0 -72 -8 -78 -45 -40 -30 29 -32 58
-5 85 38 38 50 27 50 -45z m164 -266 c66 -30 51 -139 -18 -139 -13 0 -16 14
-16 75 0 41 2 75 5 75 2 0 15 -5 29 -11z"/>
<path d="M4847 952 c-9 -10 -17 -27 -17 -38 0 -16 -13 -23 -70 -38 -48 -12
-88 -31 -128 -61 -72 -52 -96 -98 -90 -167 9 -84 90 -147 231 -178 l57 -13 0
-84 c0 -63 -3 -83 -14 -83 -24 0 -65 40 -77 75 l-13 35 -86 0 c-106 0 -132
-13 -121 -62 25 -109 108 -167 274 -193 36 -6 38 -8 35 -38 -3 -31 -1 -32 36
-35 51 -4 84 14 88 47 3 22 9 27 46 33 94 16 205 86 238 150 17 33 20 111 6
149 -23 60 -94 98 -252 137 l-35 8 0 72 c0 82 14 92 50 35 l20 -32 91 -1 c57
0 94 4 102 12 36 36 -16 130 -91 167 -25 12 -72 27 -106 33 -59 11 -60 12 -63
47 -3 35 -4 36 -49 39 -34 2 -49 -2 -62 -16z m-17 -267 c0 -36 -4 -65 -9 -65
-4 0 -20 9 -35 21 -44 35 -28 109 25 109 17 0 19 -7 19 -65z m163 -266 c30
-16 37 -28 37 -69 0 -46 -9 -58 -48 -66 l-32 -6 0 76 c0 79 4 85 43 65z"/>
<path d="M5813 955 c-13 -9 -23 -27 -23 -40 0 -20 -7 -25 -50 -34 -95 -21
-188 -81 -221 -143 -60 -116 19 -222 197 -264 l74 -18 0 -83 c0 -63 -3 -83
-14 -83 -24 0 -65 40 -77 75 l-13 35 -86 0 c-107 0 -132 -13 -120 -64 21 -95
87 -150 218 -181 84 -21 87 -23 87 -51 1 -26 4 -29 40 -32 49 -4 85 14 85 44
0 17 7 25 25 29 14 3 37 8 53 11 44 9 124 53 160 87 47 44 64 82 64 138 0 97
-63 155 -207 192 l-90 23 -3 73 c-3 65 -1 72 15 69 10 -2 29 -20 42 -41 l24
-37 82 0 c97 0 122 16 111 71 -14 72 -95 131 -205 150 -59 11 -60 11 -63 47
-3 35 -5 37 -43 40 -25 2 -49 -3 -62 -13z m-23 -270 c0 -36 -4 -65 -9 -65 -4
0 -20 9 -35 21 -44 35 -28 109 25 109 17 0 19 -7 19 -65z m174 -276 c20 -15
26 -29 26 -57 0 -48 -9 -60 -48 -68 l-32 -6 0 76 c0 84 7 92 54 55z"/>
<path d="M2777 942 c-9 -10 -17 -28 -17 -39 0 -17 -8 -23 -41 -28 -60 -10
-107 -32 -165 -75 -64 -48 -88 -96 -82 -162 9 -86 90 -147 240 -179 l48 -11 0
-84 c0 -66 -3 -84 -14 -84 -25 0 -74 49 -81 80 l-7 30 -92 0 c-116 0 -131 -11
-114 -80 22 -85 104 -143 240 -170 54 -11 57 -13 60 -43 3 -30 6 -32 47 -35
48 -4 78 15 83 51 2 17 13 23 45 29 92 15 185 72 230 139 22 34 25 47 21 104
-3 55 -8 69 -33 96 -40 42 -71 56 -173 82 l-87 23 -3 72 c-2 56 0 72 11 72 16
0 41 -26 50 -52 5 -15 20 -18 100 -18 109 0 123 8 113 65 -14 73 -102 132
-223 151 -40 6 -42 8 -45 43 -3 35 -4 36 -49 39 -34 2 -49 -2 -62 -16z m-17
-267 c0 -36 -4 -65 -9 -65 -4 0 -20 9 -35 21 -44 35 -28 109 25 109 17 0 19
-7 19 -65z m163 -266 c30 -16 37 -28 37 -69 0 -46 -9 -58 -48 -66 l-32 -6 0
76 c0 79 4 85 43 65z"/>
<path d="M767 930 c-14 -11 -27 -30 -29 -42 -2 -18 -12 -24 -47 -30 -139 -24
-255 -143 -237 -243 14 -75 105 -141 229 -167 l57 -12 0 -89 0 -89 -32 19
c-31 18 -50 44 -62 86 -5 14 -18 17 -90 17 -105 0 -133 -16 -122 -72 16 -89
109 -158 240 -181 66 -11 66 -11 66 -44 0 -33 0 -33 48 -33 51 0 82 20 82 53
0 11 16 19 53 27 115 24 227 114 243 195 20 110 -56 194 -205 225 -100 22 -91
12 -91 95 0 41 4 75 8 75 12 0 48 -41 55 -62 5 -15 20 -18 95 -18 75 0 92 3
106 19 15 17 16 25 6 55 -16 51 -46 84 -99 110 -36 19 -137 46 -168 46 -2 0
-3 15 -3 34 0 26 -5 35 -22 40 -38 10 -54 7 -81 -14z m-27 -265 c0 -72 -8 -78
-45 -40 -30 29 -32 58 -5 85 38 38 50 27 50 -45z m169 -270 c16 -8 31 -22 35
-30 18 -48 -9 -105 -50 -105 -23 0 -24 2 -24 75 0 41 2 75 5 75 4 0 19 -7 34
-15z"/>
<path d="M3818 937 c-9 -7 -18 -24 -20 -37 -2 -20 -12 -26 -62 -37 -105 -24
-208 -107 -222 -178 -20 -110 48 -184 207 -224 l74 -19 3 -86 c1 -47 0 -86 -4
-86 -21 0 -67 40 -81 71 l-16 36 -80 7 c-63 5 -84 4 -103 -9 -44 -28 -24 -107
41 -164 47 -41 90 -59 175 -75 62 -12 65 -13 68 -43 3 -28 7 -31 43 -35 48 -4
79 14 79 46 0 20 7 25 42 30 144 23 262 129 262 235 -1 94 -65 155 -197 186
-40 9 -79 19 -87 21 -12 3 -14 19 -12 79 3 71 5 74 24 64 11 -6 24 -24 30 -40
l10 -29 87 0 c107 0 134 14 121 61 -13 46 -36 76 -81 108 -34 25 -66 36 -166
57 -19 3 -23 11 -23 39 l0 35 -47 0 c-27 0 -55 -6 -65 -13z m-18 -262 c0 -72
-12 -83 -51 -44 -28 28 -23 79 11 96 14 7 28 13 33 13 4 0 7 -29 7 -65z m161
-270 c66 -34 57 -135 -12 -135 l-29 0 0 75 c0 41 2 75 5 75 4 0 19 -7 36 -15z"/>
<path d="M1732 924 c-12 -8 -22 -26 -22 -38 0 -21 -7 -25 -60 -35 -116 -23
-229 -126 -230 -208 0 -105 75 -165 263 -207 27 -6 27 -7 27 -91 0 -47 -3 -85
-7 -85 -25 0 -72 43 -83 74 l-12 36 -84 0 c-97 0 -124 -10 -124 -46 0 -88 104
-179 225 -199 86 -13 85 -13 85 -50 0 -35 1 -35 43 -35 49 1 74 16 79 49 2 20
13 26 68 40 194 49 286 190 207 320 -25 41 -110 84 -202 101 l-65 12 0 79 c0
76 1 79 20 67 11 -7 25 -25 31 -40 11 -28 12 -28 103 -28 114 1 134 11 116 65
-26 80 -108 136 -218 151 l-52 7 0 38 0 39 -43 0 c-23 0 -53 -7 -65 -16z m-26
-331 c-8 -8 -55 28 -62 49 -10 33 4 66 33 76 l28 9 3 -65 c2 -35 1 -66 -2 -69z
m181 -208 c46 -32 36 -118 -15 -128 -15 -3 -30 -3 -34 0 -5 2 -8 35 -8 74 0
59 2 69 18 69 10 0 27 -7 39 -15z"/>
<path d="M6768 926 c-10 -7 -18 -25 -18 -38 0 -23 -5 -27 -43 -32 -56 -9 -135
-46 -181 -86 -103 -91 -90 -217 30 -282 44 -24 74 -34 157 -52 27 -6 27 -7 27
-91 0 -55 -4 -85 -11 -85 -19 0 -79 67 -79 89 0 20 -5 21 -92 21 -112 -1 -134
-12 -123 -62 22 -104 96 -156 277 -193 21 -4 27 -11 30 -38 3 -29 6 -32 41
-35 49 -4 87 19 87 53 0 20 5 25 23 25 81 0 212 75 252 145 44 75 30 163 -34
218 -32 27 -128 62 -198 73 l-43 7 0 73 c0 55 3 74 13 74 16 0 41 -27 50 -52
5 -15 20 -18 100 -18 97 0 117 7 117 43 0 33 -42 95 -80 121 -42 27 -129 56
-172 56 -26 0 -28 3 -28 40 l0 40 -42 0 c-24 0 -51 -7 -60 -14z m-27 -274 l-6
-64 -28 22 c-37 29 -36 88 3 107 14 7 27 9 31 5 3 -4 3 -36 0 -70z m183 -273
c47 -37 31 -111 -26 -125 l-28 -6 0 76 c0 84 7 92 54 55z"/>
<path d="M9748 928 c-9 -7 -18 -24 -20 -37 -3 -21 -12 -26 -61 -38 -71 -16
-107 -34 -158 -80 -53 -48 -69 -81 -69 -142 0 -42 5 -56 32 -86 39 -45 106
-80 186 -96 l62 -13 0 -88 0 -89 -31 17 c-19 9 -38 31 -48 54 l-16 39 -88 3
c-135 5 -154 -22 -91 -129 14 -25 42 -53 67 -67 48 -28 138 -56 179 -56 25 0
28 -3 28 -34 0 -22 6 -36 16 -40 48 -19 114 10 114 49 0 20 7 24 43 30 97 16
215 94 244 162 18 43 17 107 -3 148 -26 55 -118 103 -235 123 l-44 7 -3 78
c-2 42 1 77 6 77 11 0 47 -41 55 -62 5 -15 20 -18 95 -18 109 0 128 10 118 63
-10 53 -68 109 -139 136 -32 11 -68 21 -82 21 -43 0 -55 10 -55 46 0 33 -1 34
-43 34 -24 0 -50 -6 -59 -12z m-18 -252 c0 -81 -6 -90 -41 -65 -37 26 -41 80
-7 103 39 28 48 21 48 -38z m159 -281 c32 -16 41 -33 41 -74 0 -35 -18 -58
-52 -63 l-28 -5 0 78 c0 44 2 79 5 79 4 0 19 -7 34 -15z"/>
<path d="M7678 918 c-9 -7 -18 -24 -20 -37 -3 -21 -12 -26 -63 -38 -68 -15
-125 -47 -174 -94 -41 -41 -51 -66 -51 -129 0 -41 5 -55 32 -85 39 -45 106
-80 186 -96 l62 -13 0 -88 0 -89 -31 17 c-19 9 -38 31 -48 55 l-16 39 -88 0
c-94 0 -127 -10 -127 -38 0 -38 49 -121 87 -146 42 -30 150 -66 193 -66 26 0
29 -4 32 -37 3 -36 5 -38 40 -41 46 -4 88 22 88 53 0 19 7 24 43 29 94 14 215
95 244 163 15 37 17 101 4 135 -23 60 -94 103 -211 128 l-75 16 -3 77 c-2 42
1 77 6 77 11 0 47 -41 55 -62 5 -15 19 -18 94 -18 106 1 129 12 119 61 -3 18
-18 47 -32 66 -37 49 -82 69 -216 98 -24 5 -28 10 -28 40 0 35 -1 35 -43 35
-24 0 -50 -6 -59 -12z m-26 -264 c-2 -32 -5 -61 -7 -63 -3 -2 -16 4 -30 13
-37 25 -34 94 5 109 29 11 35 0 32 -59z m167 -269 c32 -16 41 -33 41 -74 0
-35 -18 -58 -52 -63 l-28 -5 0 78 c0 44 2 79 5 79 4 0 19 -7 34 -15z"/>
<path d="M8717 912 c-10 -10 -17 -27 -17 -38 0 -16 -13 -23 -70 -38 -86 -22
-184 -89 -206 -141 -20 -48 -18 -114 5 -152 26 -41 96 -81 188 -107 41 -12 74
-24 74 -28 -1 -5 -1 -42 -1 -83 0 -48 -4 -75 -11 -75 -19 0 -79 67 -79 89 0
20 -5 21 -93 21 -80 0 -97 -3 -111 -19 -37 -41 23 -150 107 -192 31 -17 148
-48 179 -49 4 0 8 -15 10 -32 3 -31 5 -33 47 -36 47 -4 81 17 81 49 0 12 10
21 28 25 109 24 192 69 238 129 40 53 46 145 12 195 -31 46 -105 86 -200 106
l-78 17 0 74 c0 54 3 73 13 73 18 0 47 -32 47 -52 0 -29 159 -39 198 -12 37
26 23 82 -35 135 -40 38 -82 57 -157 71 l-66 13 0 37 0 38 -43 0 c-30 0 -49
-6 -60 -18z m-17 -267 c0 -36 -4 -65 -9 -65 -4 0 -20 9 -35 21 -47 37 -31 108
27 109 14 0 17 -10 17 -65z m174 -276 c51 -40 26 -129 -36 -129 -16 0 -18 10
-18 75 0 83 7 91 54 54z"/>
</g>
</svg>
